<svg width="196" height="80" viewBox="0 0 196 80" fill="none" xmlns="http://www.w3.org/2000/svg">
<path d="M0 15C0 9.47715 4.47715 5 10 5H46C51.5228 5 56 9.47715 56 15V49C56 54.5228 51.5228 59 46 59H10C4.47715 59 0 54.5228 0 49V15Z" fill="#3EEF55"/>
<path d="M19.52 21.296H30.176C36.368 21.296 39.5 23.924 39.5 29.18C39.5 34.472 36.368 37.136 30.104 37.136H23.732V47H19.52V21.296ZM23.732 24.896V33.536H29.852C31.724 33.536 33.092 33.176 33.956 32.528C34.82 31.844 35.252 30.728 35.252 29.18C35.252 27.632 34.784 26.552 33.92 25.904C33.056 25.22 31.688 24.896 29.852 24.896H23.732Z" fill="white"/>
<path d="M69.2483 29.296H79.7603C85.6642 29.296 88.6163 31.816 88.6163 36.856C88.6163 41.932 85.6283 44.488 79.7243 44.488H72.2003V55H69.2483V29.296ZM72.2003 31.852V41.932H79.5803C81.6683 41.932 83.1803 41.5 84.1883 40.672C85.1602 39.844 85.6642 38.584 85.6642 36.856C85.6642 35.128 85.1602 33.868 84.1523 33.112C83.1443 32.248 81.6323 31.852 79.5803 31.852H72.2003ZM94.3619 29.368C94.9739 29.368 95.4779 29.548 95.9099 29.98C96.3419 30.34 96.5579 30.844 96.5579 31.492C96.5579 32.104 96.3419 32.608 95.9099 33.04C95.4779 33.436 94.9739 33.652 94.3619 33.652C93.7499 33.652 93.2459 33.436 92.8139 33.04C92.3819 32.608 92.2019 32.104 92.2019 31.492C92.2019 30.844 92.3819 30.34 92.8139 29.98C93.2459 29.548 93.7499 29.368 94.3619 29.368ZM92.9219 36.388H95.8019V55H92.9219V36.388ZM101.773 28.792H104.617V55H101.773V28.792ZM110.246 28.792H113.09V55H110.246V28.792ZM126.242 35.884C128.906 35.884 130.85 36.568 132.146 37.972C133.226 39.196 133.802 40.888 133.802 43.048V55H131.102V51.868C130.382 52.876 129.41 53.704 128.258 54.352C126.89 55.108 125.342 55.504 123.614 55.504C121.742 55.504 120.266 55.036 119.15 54.1C117.998 53.128 117.422 51.868 117.422 50.356C117.422 48.232 118.25 46.648 119.978 45.568C121.49 44.56 123.65 44.02 126.458 43.984L130.922 43.912V42.94C130.922 39.808 129.302 38.26 126.062 38.26C124.694 38.26 123.578 38.512 122.714 39.088C121.742 39.664 121.13 40.564 120.842 41.752L117.998 41.536C118.394 39.592 119.366 38.116 120.878 37.18C122.246 36.316 124.01 35.884 126.242 35.884ZM130.922 46.072L126.638 46.144C122.462 46.216 120.374 47.584 120.374 50.284C120.374 51.148 120.698 51.832 121.418 52.408C122.138 52.948 123.074 53.236 124.226 53.236C125.99 53.236 127.538 52.66 128.906 51.508C130.238 50.392 130.922 49.096 130.922 47.656V46.072ZM146.424 35.884C147.432 35.884 148.296 36.028 148.98 36.316V39.196C148.044 38.908 147.108 38.8 146.208 38.8C144.768 38.8 143.544 39.412 142.572 40.708C141.564 41.932 141.096 43.408 141.096 45.136V55H138.252V36.388H141.096V39.628C141.6 38.548 142.248 37.684 143.04 37.072C144.012 36.28 145.128 35.884 146.424 35.884ZM157.988 35.884C162.596 35.884 165.116 37.792 165.62 41.68H162.812C162.56 40.528 162.092 39.664 161.372 39.16C160.58 38.584 159.428 38.296 157.952 38.296C156.656 38.296 155.648 38.512 154.928 39.016C154.136 39.484 153.74 40.132 153.74 40.96C153.74 41.752 154.244 42.436 155.324 42.976C156.008 43.3 157.304 43.696 159.176 44.2C161.408 44.74 162.992 45.316 163.964 45.928C165.44 46.864 166.196 48.124 166.196 49.744C166.196 53.56 163.568 55.504 158.312 55.504C153.416 55.504 150.752 53.344 150.32 49.06H153.128C153.344 50.536 153.884 51.58 154.676 52.228C155.468 52.804 156.656 53.092 158.24 53.092C161.552 53.092 163.244 52.012 163.244 49.924C163.244 48.88 162.632 48.088 161.48 47.512C160.868 47.224 159.536 46.828 157.52 46.324C155.324 45.784 153.776 45.244 152.912 44.668C151.472 43.804 150.788 42.616 150.788 41.032C150.788 39.448 151.472 38.224 152.876 37.288C154.172 36.352 155.9 35.884 157.988 35.884Z" fill="white"/>
<path d="M72.8606 18.24C72.1353 18.24 71.426 18.144 70.7326 17.952C70.0393 17.7493 69.49 17.4987 69.0846 17.2V7.712C69.0846 7.50933 69.1273 7.36 69.2126 7.264C69.3086 7.168 69.4633 7.12 69.6766 7.12H70.4926C70.706 7.12 70.8606 7.168 70.9566 7.264C71.0526 7.36 71.1006 7.50933 71.1006 7.712V10.832C71.378 10.5867 71.7406 10.4 72.1886 10.272C72.6366 10.144 73.1166 10.08 73.6286 10.08C74.834 10.08 75.762 10.4107 76.4126 11.072C77.0633 11.7333 77.3886 12.6613 77.3886 13.856C77.3886 15.2427 77.0046 16.32 76.2366 17.088C75.4793 17.856 74.354 18.24 72.8606 18.24ZM72.7646 16.784C73.65 16.784 74.3006 16.5493 74.7166 16.08C75.1433 15.6 75.3566 14.8747 75.3566 13.904C75.3566 13.0933 75.186 12.5013 74.8446 12.128C74.514 11.744 73.954 11.552 73.1646 11.552C72.6206 11.552 72.1406 11.6907 71.7246 11.968C71.3086 12.2347 71.1006 12.6293 71.1006 13.152V16.4C71.282 16.5173 71.5273 16.6133 71.8366 16.688C72.146 16.752 72.4553 16.784 72.7646 16.784ZM81.6574 18.24C80.612 18.24 79.78 17.9253 79.1614 17.296C78.5427 16.656 78.2334 15.76 78.2334 14.608C78.2334 13.712 78.4307 12.9227 78.8254 12.24C79.22 11.5467 79.78 11.0133 80.5054 10.64C81.2414 10.2667 82.0947 10.08 83.0654 10.08C84.42 10.08 85.5667 10.4 86.5054 11.04V17.568C86.5054 17.728 86.468 17.84 86.3934 17.904C86.3294 17.968 86.212 18 86.0414 18H85.1614C85.044 18 84.9534 17.9787 84.8894 17.936C84.836 17.8827 84.7987 17.8027 84.7774 17.696L84.6494 17.072C84.3187 17.4773 83.908 17.776 83.4174 17.968C82.9374 18.1493 82.3507 18.24 81.6574 18.24ZM82.4254 16.784C82.9907 16.784 83.4867 16.6187 83.9134 16.288C84.3507 15.9573 84.5694 15.52 84.5694 14.976V11.856C84.3454 11.7387 84.116 11.6587 83.8814 11.616C83.6574 11.5627 83.38 11.536 83.0494 11.536C82.2067 11.536 81.5294 11.8027 81.0174 12.336C80.5054 12.8693 80.2494 13.6053 80.2494 14.544C80.2494 15.312 80.4254 15.8773 80.7774 16.24C81.14 16.6027 81.6894 16.784 82.4254 16.784ZM92.3548 18.24C90.9361 18.24 89.8268 17.8933 89.0268 17.2C88.2374 16.496 87.8428 15.4933 87.8428 14.192C87.8428 13.3813 88.0241 12.6667 88.3868 12.048C88.7494 11.4293 89.2668 10.9493 89.9388 10.608C90.6214 10.256 91.4161 10.08 92.3228 10.08C92.9948 10.08 93.5654 10.144 94.0348 10.272C94.5041 10.4 94.9414 10.608 95.3468 10.896C95.4428 10.96 95.4908 11.0293 95.4908 11.104C95.4908 11.168 95.4641 11.2427 95.4108 11.328L94.9788 12.08C94.9148 12.1867 94.8561 12.24 94.8028 12.24C94.7494 12.24 94.6748 12.208 94.5788 12.144C94.2481 11.9413 93.9174 11.792 93.5868 11.696C93.2668 11.5893 92.8828 11.536 92.4348 11.536C91.6348 11.536 91.0054 11.776 90.5468 12.256C90.0881 12.7253 89.8588 13.3707 89.8588 14.192C89.8588 15.056 90.0881 15.7067 90.5468 16.144C91.0054 16.5707 91.6774 16.784 92.5628 16.784C93.0108 16.784 93.4001 16.7307 93.7308 16.624C94.0614 16.5173 94.3814 16.3627 94.6908 16.16C94.7761 16.1067 94.8454 16.08 94.8988 16.08C94.9628 16.08 95.0268 16.1333 95.0908 16.24L95.5548 17.024C95.5974 17.0773 95.6188 17.136 95.6188 17.2C95.6188 17.2747 95.5654 17.3493 95.4588 17.424C95.0321 17.7013 94.5734 17.904 94.0828 18.032C93.5921 18.1707 93.0161 18.24 92.3548 18.24ZM97.8016 18C97.5883 18 97.4336 17.952 97.3376 17.856C97.2523 17.76 97.2096 17.616 97.2096 17.424V7.712C97.2096 7.50933 97.2523 7.36 97.3376 7.264C97.4336 7.168 97.5883 7.12 97.8016 7.12H98.6496C98.863 7.12 99.0176 7.168 99.1136 7.264C99.2096 7.36 99.2576 7.50933 99.2576 7.712V17.424C99.2576 17.616 99.2096 17.76 99.1136 17.856C99.0283 17.952 98.8736 18 98.6496 18H97.8016ZM102.986 18C102.868 18 102.783 17.9893 102.73 17.968C102.676 17.9467 102.618 17.8987 102.554 17.824L99.7376 14.64C99.6416 14.5333 99.5723 14.4373 99.5296 14.352C99.487 14.256 99.4656 14.1387 99.4656 14C99.4656 13.8613 99.487 13.7493 99.5296 13.664C99.5723 13.568 99.6416 13.4667 99.7376 13.36L102.458 10.512C102.522 10.4373 102.58 10.3893 102.634 10.368C102.698 10.336 102.799 10.32 102.938 10.32H104.426C104.5 10.32 104.554 10.3413 104.586 10.384C104.628 10.4267 104.65 10.48 104.65 10.544C104.65 10.6293 104.618 10.704 104.554 10.768L101.37 14L104.666 17.552C104.73 17.616 104.762 17.6853 104.762 17.76C104.762 17.824 104.74 17.8827 104.698 17.936C104.655 17.9787 104.596 18 104.522 18H102.986ZM109.604 18.24C108.772 18.24 108.02 18.1013 107.348 17.824C106.676 17.536 106.137 17.0987 105.732 16.512C105.337 15.9147 105.14 15.1733 105.14 14.288C105.14 12.912 105.508 11.8667 106.244 11.152C106.98 10.4373 108.025 10.08 109.38 10.08C110.724 10.08 111.737 10.4267 112.42 11.12C113.113 11.8133 113.46 12.816 113.46 14.128C113.46 14.5013 113.289 14.688 112.948 14.688H107.076C107.076 15.392 107.321 15.936 107.812 16.32C108.302 16.6933 108.985 16.88 109.86 16.88C110.702 16.88 111.46 16.688 112.132 16.304C112.206 16.2613 112.265 16.24 112.308 16.24C112.382 16.24 112.441 16.288 112.484 16.384L112.868 17.072C112.9 17.136 112.916 17.1947 112.916 17.248C112.916 17.3227 112.868 17.392 112.772 17.456C112.334 17.7227 111.86 17.92 111.348 18.048C110.846 18.176 110.265 18.24 109.604 18.24ZM111.604 13.504C111.604 12.8427 111.417 12.3253 111.044 11.952C110.681 11.5787 110.132 11.392 109.396 11.392C108.649 11.392 108.073 11.584 107.668 11.968C107.273 12.352 107.076 12.864 107.076 13.504H111.604ZM119.246 18.24C116.217 18.24 114.702 16.8747 114.702 14.144C114.702 13.344 114.857 12.64 115.166 12.032C115.475 11.4133 115.918 10.9333 116.494 10.592C117.081 10.2507 117.769 10.08 118.558 10.08C119.678 10.08 120.489 10.3307 120.99 10.832V7.712C120.99 7.50933 121.038 7.36 121.134 7.264C121.23 7.168 121.385 7.12 121.598 7.12H122.398C122.611 7.12 122.766 7.168 122.862 7.264C122.958 7.36 123.006 7.50933 123.006 7.712V17.2C122.601 17.4987 122.057 17.7493 121.374 17.952C120.691 18.144 119.982 18.24 119.246 18.24ZM119.294 16.784C120.009 16.784 120.574 16.656 120.99 16.4V13.136C120.99 12.6133 120.809 12.2187 120.446 11.952C120.083 11.6853 119.614 11.552 119.038 11.552C118.259 11.552 117.678 11.7867 117.294 12.256C116.91 12.7253 116.718 13.3707 116.718 14.192C116.718 15.1093 116.931 15.7707 117.358 16.176C117.785 16.5813 118.43 16.784 119.294 16.784ZM134.908 18.24C134.182 18.24 133.473 18.144 132.78 17.952C132.086 17.7493 131.537 17.4987 131.132 17.2V7.712C131.132 7.50933 131.174 7.36 131.26 7.264C131.356 7.168 131.51 7.12 131.724 7.12H132.539C132.753 7.12 132.908 7.168 133.004 7.264C133.1 7.36 133.148 7.50933 133.148 7.712V10.832C133.425 10.5867 133.788 10.4 134.236 10.272C134.684 10.144 135.164 10.08 135.676 10.08C136.881 10.08 137.809 10.4107 138.46 11.072C139.11 11.7333 139.436 12.6613 139.436 13.856C139.436 15.2427 139.052 16.32 138.284 17.088C137.526 17.856 136.401 18.24 134.908 18.24ZM134.812 16.784C135.697 16.784 136.348 16.5493 136.764 16.08C137.19 15.6 137.404 14.8747 137.404 13.904C137.404 13.0933 137.233 12.5013 136.892 12.128C136.561 11.744 136.001 11.552 135.212 11.552C134.668 11.552 134.188 11.6907 133.772 11.968C133.356 12.2347 133.148 12.6293 133.148 13.152V16.4C133.329 16.5173 133.574 16.6133 133.884 16.688C134.193 16.752 134.502 16.784 134.812 16.784ZM142.144 20.496C141.738 20.496 141.365 20.4373 141.024 20.32C140.682 20.2027 140.389 20.0427 140.144 19.84C140.058 19.7653 140.016 19.696 140.016 19.632C140.016 19.568 140.037 19.5093 140.08 19.456L140.528 18.688C140.592 18.5813 140.656 18.528 140.72 18.528C140.773 18.528 140.837 18.56 140.912 18.624C141.082 18.752 141.253 18.848 141.424 18.912C141.605 18.976 141.818 19.008 142.064 19.008C142.384 19.008 142.634 18.9013 142.816 18.688C142.997 18.4853 143.184 18.1387 143.376 17.648L140.144 10.768C140.101 10.6613 140.08 10.5867 140.08 10.544C140.08 10.3947 140.165 10.32 140.336 10.32H141.696C141.834 10.32 141.936 10.3413 142 10.384C142.064 10.4267 142.122 10.5067 142.176 10.624L144.32 15.648L146.464 10.624C146.517 10.5067 146.576 10.4267 146.64 10.384C146.704 10.3413 146.805 10.32 146.944 10.32H148.304C148.474 10.32 148.56 10.3947 148.56 10.544C148.56 10.5867 148.538 10.6613 148.496 10.768L145.488 17.184C145.072 18.0587 144.72 18.72 144.432 19.168C144.154 19.616 143.834 19.9467 143.472 20.16C143.12 20.384 142.677 20.496 142.144 20.496Z" fill="#A7C1BF"/>
</svg>
