<svg width="56" height="54" viewBox="0 0 56 54" fill="none" xmlns="http://www.w3.org/2000/svg">
<path d="M0 10C0 4.47715 4.47715 0 10 0H46C51.5228 0 56 4.47715 56 10V44C56 49.5228 51.5228 54 46 54H10C4.47715 54 0 49.5228 0 44V10Z" fill="#3EEF55"/>
<path d="M19.52 16.296H30.176C36.368 16.296 39.5 18.924 39.5 24.18C39.5 29.472 36.368 32.136 30.104 32.136H23.732V42H19.52V16.296ZM23.732 19.896V28.536H29.852C31.724 28.536 33.092 28.176 33.956 27.528C34.82 26.844 35.252 25.728 35.252 24.18C35.252 22.632 34.784 21.552 33.92 20.904C33.056 20.22 31.688 19.896 29.852 19.896H23.732Z" fill="white"/>
</svg>
